<?xml version="1.0" encoding="UTF-8" standalone="no"?>
<svg
   xmlns:dc="http://purl.org/dc/elements/1.1/"
   xmlns:cc="http://creativecommons.org/ns#"
   xmlns:rdf="http://www.w3.org/1999/02/22-rdf-syntax-ns#"
   xmlns:svg="http://www.w3.org/2000/svg"
   xmlns="http://www.w3.org/2000/svg"
   xmlns:sodipodi="http://sodipodi.sourceforge.net/DTD/sodipodi-0.dtd"
   xmlns:inkscape="http://www.inkscape.org/namespaces/inkscape"
   version="1.1"
   x="0px"
   y="0px"
   viewBox="0 0 1000 1000"
   enable-background="new 0 0 1000 1000"
   xml:space="preserve"
   id="svg18"
   sodipodi:docname="f0cafa5553fdf3d87bc595e1e1959622.svg"
   inkscape:export-filename="/home/victor/Documentos/Carrera/Maestría/CV(OpiAnalytics)/Smart Fancy CV/img/5stars.png"
   inkscape:export-xdpi="48.970001"
   inkscape:export-ydpi="48.970001"
   inkscape:version="1.0.1 (3bc2e813f5, 2020-09-07)"><defs
   id="defs22" /><sodipodi:namedview
   pagecolor="#ffffff"
   bordercolor="#666666"
   borderopacity="1"
   objecttolerance="10"
   gridtolerance="10"
   guidetolerance="10"
   inkscape:pageopacity="0"
   inkscape:pageshadow="2"
   inkscape:window-width="1366"
   inkscape:window-height="704"
   id="namedview20"
   showgrid="false"
   inkscape:zoom="0.56"
   inkscape:cx="497.60216"
   inkscape:cy="500"
   inkscape:window-x="0"
   inkscape:window-y="27"
   inkscape:window-maximized="1"
   inkscape:current-layer="svg18" />
<metadata
   id="metadata2"> Svg Vector Icons : http://www.onlinewebfonts.com/icon <rdf:RDF><cc:Work
     rdf:about=""><dc:format>image/svg+xml</dc:format><dc:type
       rdf:resource="http://purl.org/dc/dcmitype/StillImage" /></cc:Work></rdf:RDF></metadata>
<g
   id="g16"><g
     transform="translate(0.000000,511.000000) scale(0.100000,-0.100000)"
     id="g14"><path
       d="M814.5,683.2C744.1,542.4,684.1,426.4,682,422.3c-4.1-4.1-130.5-24.9-281.7-47.6c-153.2-22.8-285.8-49.7-298.2-62.1c-14.5-14.5,45.6-87,192.6-229.9L508-124.4l-47.6-287.9c-24.8-157.4-37.3-294.1-29-302.4c8.3-8.3,134.6,45.6,277.5,120.1l263,136.7l263-136.7c142.9-74.5,269.2-130.5,277.5-120.1c8.3,8.3-6.2,145-33.1,304.4l-47.6,289.9l198.8,188.4c118.1,109.8,200.9,205,200.9,227.8c0,20.7-4.1,39.3-10.4,39.3c-14.5,0-420.4,60.1-503.2,72.5c-64.2,12.4-74.6,26.9-190.5,271.3C1048.5,844.8,994.7,935.9,974,935.9C953.3,935.9,895.3,844.8,814.5,683.2z"
       id="path4" /><path
       d="M2955.9,911.1c-12.4-14.5-74.5-130.5-138.8-258.9c-105.6-213.3-120.1-231.9-182.3-244.4c-37.3-6.2-161.5-24.9-275.4-41.4c-113.9-18.6-215.4-41.4-227.8-53.8c-12.4-12.4,53.8-93.2,190.5-231.9l209.2-211.2l-49.7-279.6c-33.1-186.4-43.5-283.7-29-298.2c14.5-14.5,105.6,22.8,279.6,111.8L2991.1-462L3250-596.6c165.7-84.9,265.1-126.3,277.5-113.9c14.5,14.5,2.1,120.1-29,300.3l-49.7,279.6l211.2,211.2c149.1,153.3,203,219.5,188.5,234c-12.4,12.4-147,41.4-300.3,64.2s-279.6,47.6-283.7,55.9c-47.6,113.9-248.5,490.8-265.1,497C2987,933.8,2966.3,925.6,2955.9,911.1z"
       id="path6" /><path
       d="M4873.7,683.2c-70.4-140.8-130.5-256.8-132.5-260.9c-4.1-4.1-130.5-24.9-281.7-47.6c-153.3-22.8-285.8-49.7-298.2-62.1c-14.5-14.5,45.6-87,192.6-229.9l215.4-209.2l-47.6-285.8c-26.9-157.4-41.4-294.1-31.1-302.4c8.3-8.3,134.6,45.6,277.5,120.1l263,136.7l263-136.7c142.9-74.5,269.2-130.5,277.5-120.1c8.3,8.3-6.2,145-33.1,304.4l-47.6,289.9l198.8,188.4c118,109.8,200.9,205,200.9,227.8c0,20.7-4.2,39.3-10.4,39.3c-14.5,0-420.4,58-501.2,72.5c-62.1,10.4-74.6,29-190.5,269.2c-80.8,167.8-134.6,258.9-155.3,258.9C5012.4,935.9,4954.4,844.8,4873.7,683.2z"
       id="path8" /><path
       d="M6959.1,890.3c-16.6-26.9-74.6-140.8-128.4-254.7c-53.9-113.9-99.4-209.2-101.5-211.2c-2.1-4.1-126.3-22.8-279.6-45.6c-151.2-22.8-285.8-51.8-298.2-64.2c-14.5-14.5,39.4-80.8,188.5-234l211.3-211.2l-51.8-279.6c-33.1-186.4-43.5-283.7-29-298.2c14.5-14.5,105.6,22.8,279.6,111.8L7008.9-462l258.9-134.6c174-89.1,265.1-126.3,279.6-111.8c14.5,14.5,4.2,111.8-29,298.2l-51.8,279.6l211.3,211.2c140.8,142.9,202.9,219.5,188.5,234c-10.4,10.4-145,39.3-298.2,62.1c-161.5,24.9-283.7,53.8-287.9,68.3c-31.1,84.9-244.4,480.5-265.1,486.7C7002.7,935.9,6977.8,917.3,6959.1,890.3z"
       id="path10" /><path
       d="M8870.7,677c-116-240.2-128.4-258.9-190.5-269.2c-37.3-6.2-163.6-24.9-283.7-41.4c-120.1-18.6-225.7-41.4-238.2-53.8c-12.4-12.4,51.8-91.1,194.7-229.9l213.3-209.2l-47.6-285.8c-26.9-157.4-41.4-294.1-31.1-302.4c8.3-8.3,134.6,45.6,277.5,120.1l263,136.7l263-136.7c142.9-74.5,269.2-128.4,277.5-120.1c10.4,8.3-4.1,145-31.1,302.4l-47.6,283.7l213.3,211.2c149.1,142.9,209.2,215.4,194.7,229.9c-12.4,12.4-145,39.3-298.2,62.1c-151.2,22.8-279.6,43.5-283.7,47.6c-4.2,4.1-62.1,122.2-130.5,260.9c-82.8,165.7-136.7,252.7-157.4,252.7C9005.3,935.9,8951.4,848.9,8870.7,677z"
       id="path12" /></g></g>
<path
   style="fill:#d7edf5;stroke-width:1.79211;fill-opacity:1"
   d="m 44.231018,573.92473 c 0.483561,-4.18907 2.38631,-17.29008 4.228331,-29.11336 L 51.808478,523.31449 30.992063,502.23848 C 19.543034,490.64667 10.576176,480.76194 11.065713,480.2724 c 0.489536,-0.48954 12.917758,-2.91239 27.618269,-5.38411 14.700513,-2.47172 27.712862,-4.85491 28.916333,-5.29597 1.203472,-0.44105 6.957092,-10.31202 12.785823,-21.93547 5.828731,-11.62345 12.184608,-23.09054 14.124168,-25.48241 l 3.526479,-4.34886 6.399895,11.51732 c 3.51995,6.33452 8.9553,16.90309 12.07857,23.48571 3.12326,6.58261 7.15204,13.30178 8.95284,14.93148 2.19709,1.98834 11.72291,4.16277 28.95681,6.60988 14.12545,2.00574 26.32615,4.23654 27.11268,4.95735 1.9142,1.75426 -7.96261,13.34512 -25.14638,29.51038 l -14.09131,13.2561 4.39025,28.85496 c 2.41463,15.87023 3.95696,29.28825 3.42738,29.81783 -0.52957,0.52957 -12.65595,-4.86725 -26.94751,-11.99294 l -25.984662,-12.9558 -25.494092,12.86169 c -14.021749,7.07392 -26.134294,12.86168 -26.916765,12.86168 -0.782471,0 -1.027034,-3.42742 -0.543473,-7.61649 z"
   id="path24" /><path
   style="fill:#d7edf5;fill-opacity:1;stroke-width:1.79211"
   d="m 245.51971,577.46682 c 0,-2.24092 1.97228,-15.32243 4.38284,-29.07002 l 4.38285,-24.99561 -19.61582,-20.07434 c -10.7887,-11.04089 -19.61582,-20.88608 -19.61582,-21.8782 0,-2.0081 11.64665,-4.69845 36.38237,-8.40424 19.08355,-2.85901 19.36367,-3.08992 30.3469,-25.01574 12.75592,-25.46462 15.90919,-30.14899 18.48764,-27.46451 1.25461,1.3062 7.64468,12.61889 14.20016,25.13931 6.55547,12.52042 13.27971,23.17036 14.94274,23.66652 1.66304,0.49617 10.685,2.20315 20.0488,3.7933 25.82303,4.38522 34.05017,6.36146 34.05017,8.17921 0,0.91015 -8.88294,10.82441 -19.73988,22.03168 l -19.73988,20.37686 4.61333,28.1913 c 2.53733,15.50522 4.15953,28.64509 3.6049,29.19972 -0.55464,0.55464 -12.73758,-4.76695 -27.07321,-11.82575 l -26.06478,-12.83418 -25.3281,12.52955 c -13.93045,6.89124 -25.98895,12.52954 -26.79665,12.52954 -0.80771,0 -1.46856,-1.83348 -1.46856,-4.0744 z"
   id="path849" /><path
   style="fill:#d7edf5;fill-opacity:1;stroke-width:1.79211"
   d="m 449.82121,577.53301 c 2.3e-4,-2.23097 1.59642,-13.73373 3.54707,-25.56168 1.95066,-11.82796 3.56337,-23.3749 3.58381,-25.65987 0.0264,-2.94739 -5.69063,-9.76544 -19.6761,-23.46561 -10.8423,-10.62112 -19.71327,-20.1767 -19.71327,-21.23464 0,-2.21555 8.80668,-4.23789 37.28741,-8.56256 l 20.26232,-3.07674 10.55263,-20.82825 c 5.80394,-11.45553 12.1082,-23.11196 14.00946,-25.90317 l 3.45683,-5.07493 3.59036,5.07493 c 1.97469,2.79121 8.10014,14.08456 13.61211,25.09635 5.51197,11.01178 10.85851,20.53856 11.88119,21.17062 1.02269,0.63205 13.95074,2.89831 28.72901,5.03613 20.22657,2.92596 26.86958,4.51762 26.86958,6.4379 0,1.40303 -8.89644,11.4474 -19.76986,22.32083 l -19.76986,19.76986 3.55765,23.41015 c 5.56272,36.60396 5.51719,35.28872 1.17691,33.99613 -2.04892,-0.6102 -14.0433,-6.43346 -26.65419,-12.94059 l -22.92888,-11.83113 -20.97793,10.47597 c -11.53786,5.76178 -23.59889,11.58537 -26.8023,12.94129 -5.58174,2.36262 -5.82435,2.29634 -5.82395,-1.59099 z"
   id="path851" /><path
   style="fill:#d7edf5;fill-opacity:1;stroke-width:1.79211"
   d="m 646.95341,579.08366 c 0,-1.48451 2.03672,-14.53274 4.52606,-28.99608 l 4.52607,-26.29698 -19.75904,-20.39664 c -10.86748,-11.21815 -19.75904,-21.1124 -19.75904,-21.98721 0,-2.15423 11.16294,-4.77839 36.0383,-8.47181 l 20.80533,-3.08911 12.29766,-24.79747 c 6.76372,-13.6386 13.26296,-24.79746 14.44277,-24.79746 2.56068,0 6.16514,5.73194 18.5947,29.56989 5.13944,9.85663 10.86453,18.49997 12.72243,19.20741 1.8579,0.70745 10.43454,2.55779 19.05919,4.11187 29.664,5.34518 34.4984,6.50949 34.4984,8.30858 0,0.99212 -8.8299,10.84015 -19.62199,21.88451 l -19.62198,20.08065 4.80632,28.04903 c 2.64347,15.42696 4.2164,28.63894 3.49538,29.35995 -0.72101,0.72101 -12.96095,-4.49568 -27.19986,-11.59264 l -25.88892,-12.90357 -22.94863,11.4723 c -27.37265,13.68391 -31.01315,15.00859 -31.01315,11.28478 z"
   id="path853" /><path
   style="fill:#d7edf5;fill-opacity:1;stroke-width:1.79211"
   d="m 849.46279,577.53301 c 2.3e-4,-2.23097 1.59641,-13.73373 3.54707,-25.56168 1.95066,-11.82796 3.56337,-23.49223 3.58381,-25.9206 0.0276,-3.27619 -5.04838,-9.40493 -19.67611,-23.75705 -10.84229,-10.63802 -19.71326,-20.08593 -19.71326,-20.99537 0,-1.87899 10.91808,-4.29195 36.41821,-8.04863 9.68056,-1.42614 18.82726,-3.61067 20.326,-4.85452 1.49875,-1.24385 7.42174,-11.57709 13.16222,-22.96276 5.74047,-11.38567 11.62558,-22.2811 13.07802,-24.21206 2.53038,-3.36403 2.85519,-3.16925 7.76725,4.6578 2.81954,4.49276 9.07344,16.24699 13.89754,26.12051 l 8.77111,17.95186 24.38301,3.85211 c 13.41066,2.11866 26.80238,4.52529 29.75937,5.34807 l 5.37634,1.49595 -21.14552,21.50563 -21.14551,21.50563 3.50484,21.32517 c 5.36835,32.66375 5.80086,36.55815 4.06004,36.55815 -0.88791,0 -13.08347,-5.78612 -27.10125,-12.85804 l -25.48687,-12.85803 -20.85899,10.41676 c -11.47245,5.72923 -23.47997,11.52617 -26.68337,12.88209 -5.58174,2.36262 -5.82436,2.29634 -5.82395,-1.59099 z"
   id="path855" /><path
   style="fill:#182433;fill-opacity:1;stroke-width:1.79211"
   d="m 45.371772,573.02867 c 0.564852,-3.69623 2.447237,-16.58803 4.183081,-28.64844 L 52.710934,522.45222 33.523925,502.98138 C 22.971071,492.27242 14.336918,482.72675 14.336918,481.76877 c 0,-0.95797 10.685483,-3.55909 23.745519,-5.78026 13.060036,-2.22116 25.468464,-4.4449 27.574285,-4.94165 2.70271,-0.63754 7.282319,-7.31762 15.571414,-22.71336 17.815111,-33.08888 14.657255,-32.68657 30.067544,-3.83062 15.1377,28.34552 11.0435,25.57474 46.31148,31.34173 12.26638,2.0058 22.67689,4.02128 23.13446,4.47885 0.45758,0.45758 -8.22094,10.00759 -19.28559,21.22226 l -20.11755,20.39029 3.84296,26.17662 c 2.11364,14.39715 3.57861,27.31473 3.2555,28.70574 -0.43295,1.86387 -7.3428,-0.70183 -26.26994,-9.75429 L 96.484538,554.78067 71.563645,567.26489 c -13.706491,6.86632 -25.437937,12.48421 -26.069882,12.48421 -0.631944,0 -0.68684,-3.02419 -0.121989,-6.72043 z"
   id="path897" /><path
   style="fill:#182433;fill-opacity:1;stroke-width:1.78571"
   d="m 247.35798,574.55357 c -0.0239,-2.70089 1.74003,-15.52775 3.91984,-28.50413 l 3.96329,-23.59342 -19.33674,-19.82897 c -11.14083,-11.42443 -18.66806,-20.49262 -17.75912,-21.39474 0.86769,-0.86117 12.20885,-3.4811 25.20259,-5.82207 16.28615,-2.93414 24.80748,-5.32308 27.43165,-7.69042 2.09367,-1.88876 7.28922,-10.26446 11.54567,-18.61268 4.25645,-8.34821 9.66795,-18.2861 12.02556,-22.0842 l 4.28656,-6.90563 3.58541,6.01277 c 1.97197,3.30703 6.22507,10.83421 9.45131,16.72706 3.22625,5.89286 8.19934,14.45406 11.05132,19.02489 l 5.18541,8.31061 16.44178,2.92255 c 25.48644,4.53025 35.27134,6.81886 36.30508,8.49148 0.52265,0.84568 -7.54974,10.26385 -17.93865,20.92927 -10.38892,10.66543 -18.89948,20.48475 -18.91237,21.82073 -0.0129,1.33597 1.7041,13.90402 3.81553,27.929 2.11142,14.02497 3.41246,25.92644 2.89119,26.44771 -0.52127,0.52127 -12.28801,-4.44791 -26.14832,-11.04262 l -25.20057,-11.99038 -24.79748,11.88195 c -13.63861,6.53508 -25.28528,11.88196 -25.88148,11.88196 -0.5962,0 -1.10356,-2.20983 -1.12746,-4.91072 z"
   id="path899" /><path
   style="fill:#182433;fill-opacity:1;stroke-width:1.78571"
   d="m 450.97286,576.96332 c 0,-1.37554 1.63806,-13.52297 3.64013,-26.99431 4.31818,-29.05569 5.68299,-25.43039 -19.24517,-51.12006 -9.21095,-9.49233 -15.96602,-17.74156 -15.01128,-18.33163 0.95475,-0.59006 12.05096,-2.71397 24.65826,-4.7198 12.60729,-2.00582 24.65842,-4.00754 26.78029,-4.44826 2.83292,-0.58841 7.03455,-6.8522 15.8139,-23.57529 6.57577,-12.52568 12.82047,-23.83574 13.87711,-25.13346 2.26436,-2.781 5.39736,1.89133 19.18786,28.61537 4.91781,9.53002 9.73427,17.81729 10.70325,18.41615 0.96898,0.59886 13.14016,3.02001 27.04708,5.38034 13.90692,2.36033 25.90008,4.92128 26.65148,5.691 0.75139,0.76972 -7.40845,10.74505 -18.13299,22.16741 l -19.49915,20.76793 3.95078,26.8971 c 2.17293,14.7934 3.45445,27.39343 2.84782,28.00006 -0.60663,0.60663 -12.43862,-4.57567 -26.29331,-11.51623 l -25.19034,-12.6192 -24.9762,12.51192 c -13.73691,6.88156 -25.3887,12.51193 -25.89286,12.51193 -0.50416,0 -0.91666,-1.12544 -0.91666,-2.50097 z"
   id="path901" /><path
   style="fill:#182433;fill-opacity:1;stroke-width:1.78571"
   d="m 648.32147,574.55357 c 0.5517,-2.70089 2.70178,-15.1624 4.77796,-27.69224 l 3.77487,-22.78152 -10.73762,-12.0399 c -5.9057,-6.62195 -14.4205,-15.6224 -18.92179,-20.001 -6.71811,-6.535 -10.37289,-12.57462 -7.60931,-12.57462 3.31492,0 53.91162,-9.2449 54.66524,-9.98829 0.55545,-0.54791 6.23313,-11.14706 12.61706,-23.55366 6.38392,-12.4066 12.45882,-22.80827 13.49977,-23.11482 1.04095,-0.30655 5.77998,6.48992 10.5312,15.10327 4.75121,8.61335 10.96552,19.4012 13.80957,23.97299 l 5.17099,8.31235 25.84648,4.85446 c 14.21556,2.66995 26.24516,5.49955 26.73245,6.28799 0.48728,0.78844 -7.79448,10.53302 -18.40392,21.65462 l -19.28988,20.22109 4.36713,27.25001 c 2.40192,14.98751 3.90214,27.71501 3.33381,28.28333 -0.56832,0.56833 -12.34088,-4.38481 -26.16123,-11.00697 l -25.12792,-12.04028 -24.97267,11.88195 c -13.73497,6.53508 -25.85751,11.88196 -26.93897,11.88196 -1.19775,0 -1.57423,-1.91942 -0.96322,-4.91072 z"
   id="path903" /><path
   style="fill:#182433;fill-opacity:1;stroke-width:1.78571"
   d="m 851.21986,574.50937 c 0.0254,-2.67658 1.48419,-14.6163 3.24166,-26.53271 1.75746,-11.91641 2.58899,-23.30542 1.84785,-25.30893 -0.74114,-2.0035 -9.46726,-12.07291 -19.39136,-22.37646 -9.9241,-10.30356 -17.29305,-19.19775 -16.37543,-19.76487 0.91762,-0.56712 13.19539,-3.01598 27.28392,-5.4419 18.94853,-3.26277 26.2318,-5.24208 27.98336,-7.60478 1.30231,-1.7567 7.7107,-13.11789 14.24086,-25.24708 l 11.87301,-22.05308 3.40263,4.19593 c 1.87144,2.30777 8.12954,13.62217 13.90688,25.14312 8.00132,15.95592 11.46252,21.14335 14.52587,21.77049 2.21189,0.45283 14.46805,2.56567 27.23591,4.69522 12.76786,2.12954 23.88508,4.27502 24.70494,4.76772 0.81986,0.49271 -7.41675,9.924 -18.30357,20.95842 -10.88683,11.03442 -19.79423,21.18725 -19.79423,22.56186 0,1.3746 1.7698,13.92462 3.93288,27.88893 2.16309,13.96431 3.4541,25.86844 2.86892,26.45362 -0.58518,0.58518 -12.40045,-4.61509 -26.25615,-11.55615 l -25.19218,-12.62012 -21.67807,10.86689 c -30.38816,15.23311 -30.11423,15.14923 -30.0577,9.20388 z"
   id="path905" /></svg>
